<svg height="20" viewBox="0 0 20 20" width="20" xmlns="http://www.w3.org/2000/svg" xmlns:xlink="http://www.w3.org/1999/xlink"><defs><path id="a" d="m14.9084972 10.898965-6.29396809 7.7724033c-1.0422701 1.2870964-2.93529058 1.4817647-4.21889109.4423255l-3.10807134-2.5168665c-1.28775911-1.0428068-1.48697985-2.931304-.44449719-4.2186629l6.29396814-7.77240332z"/><mask id="b" fill="#fff" height="15.175526" width="14.733641" x="0" y="0"><use xlink:href="#a"/></mask><rect id="c" height="4" rx="1" width="12" x="5.652088" y="4.975217"/><mask id="d" fill="#fff" height="4" width="12" x="0" y="0"><use xlink:href="#c"/></mask></defs><g fill="none" fill-rule="evenodd" stroke="#36434d" transform="translate(1)"><use mask="url(#b)" stroke-linecap="square" stroke-width="2" xlink:href="#a"/><use mask="url(#d)" stroke-linecap="square" stroke-width="2" transform="matrix(.77714596 .62932039 -.62932039 .77714596 6.986361 -5.778441)" xlink:href="#c"/><g stroke-linecap="round" stroke-linejoin="round"><path d="m9.73921272 2.98135818c1.03997938-1.28426754 2.71145768-1.75598003 4.20634908-1.3302042.048674-.09326861.1073171-.18309221.1760828-.26801071.5561025-.68672938 1.5636168-.7926234 2.2503462-.23652091.6867293.55610249.7926234 1.56361678.2365209 2.25034616-.0687657.08491851-.1444338.16095551-.2255444.22795754.727277 1.37370063.6133925 3.1067277-.4265869 4.39099525"/><path d="m6.02510673 10.3055393h2" transform="matrix(.77714596 .62932039 -.62932039 .77714596 8.051059 -2.124412)"/><path d="m4.76646595 11.8598312h2" transform="matrix(.77714596 .62932039 -.62932039 .77714596 8.748714 -.985943)"/><path d="m3.50782517 13.4141231h2" transform="matrix(.77714596 .62932039 -.62932039 .77714596 9.446368 .152525)"/></g></g></svg>